<svg width="341" height="199" viewBox="0 0 341 199" fill="none" xmlns="http://www.w3.org/2000/svg">
<g clip-path="url(#clip0_214_2)">
<g clip-path="url(#clip1_214_2)">
<g clip-path="url(#clip2_214_2)">
<path d="M280.338 101.302H61.4553C60.2218 101.302 59.2218 102.103 59.2218 103.091C59.2218 104.079 60.2218 104.88 61.4553 104.88H280.338C281.572 104.88 282.571 104.079 282.571 103.091C282.571 102.103 281.572 101.302 280.338 101.302Z" fill="#4D0990"/>
<path d="M280.338 109.563H61.4553C60.2218 109.563 59.2218 110.364 59.2218 111.352C59.2218 112.34 60.2218 113.141 61.4553 113.141H280.338C281.572 113.141 282.571 112.34 282.571 111.352C282.571 110.364 281.572 109.563 280.338 109.563Z" fill="#4D0990"/>
<g clip-path="url(#clip3_214_2)">
<g clip-path="url(#clip4_214_2)">
<g clip-path="url(#clip5_214_2)">
<g clip-path="url(#clip6_214_2)">
<path d="M64.035 157.758H59.7874V123.781H67.0545C68.49 123.781 69.6563 124.008 70.5535 124.461C71.4507 124.909 72.1376 125.557 72.6142 126.406C73.0964 127.255 73.4217 128.278 73.5899 129.474C73.7637 130.671 73.8506 132.018 73.8506 133.515V134.037C73.8506 136.314 73.6628 138.225 73.2871 139.769C72.9114 141.314 72.2329 142.474 71.2516 143.249C70.2759 144.029 68.8769 144.419 67.0545 144.419H64.035V157.758ZM64.035 126.952V141.098H66.6256C67.4555 141.098 68.0835 140.876 68.5096 140.434C68.9358 139.991 69.2274 139.253 69.3844 138.22C69.5414 137.192 69.6199 135.797 69.6199 134.037V133.38C69.6199 131.187 69.4433 129.566 69.09 128.517C68.7311 127.474 67.9433 126.952 66.7265 126.952H64.035ZM84.6083 158.106C83.156 158.106 81.9785 157.872 81.0757 157.403C80.1729 156.933 79.4776 156.264 78.9897 155.394C78.5075 154.524 78.1767 153.481 77.9973 152.263C77.8178 151.05 77.7281 149.69 77.7281 148.183V137.935C77.7281 136.116 77.9131 134.493 78.2832 133.064C78.6533 131.635 79.3346 130.51 80.3271 129.688C81.3196 128.865 82.7467 128.454 84.6083 128.454C86.0045 128.454 87.1484 128.689 88.04 129.158C88.926 129.627 89.6157 130.291 90.1091 131.151C90.6026 132.005 90.9418 133.006 91.1268 134.155C91.3119 135.31 91.4044 136.57 91.4044 137.935V148.183C91.4044 149.664 91.3231 151.008 91.1605 152.215C90.9923 153.428 90.6726 154.474 90.2016 155.355C89.7306 156.235 89.0465 156.915 88.1493 157.395C87.2522 157.869 86.0718 158.106 84.6083 158.106ZM84.6083 154.801C85.3485 154.801 85.9008 154.572 86.2653 154.113C86.6241 153.649 86.8653 153.001 86.9886 152.168C87.112 151.34 87.1737 150.378 87.1737 149.282V137.144C87.1737 136.058 87.112 135.115 86.9886 134.313C86.8653 133.507 86.6185 132.88 86.2485 132.431C85.8784 131.978 85.3316 131.751 84.6083 131.751C83.8401 131.751 83.2653 131.978 82.884 132.431C82.5027 132.88 82.2532 133.507 82.1355 134.313C82.0177 135.115 81.9588 136.058 81.9588 137.144V149.282C81.9588 150.378 82.0177 151.34 82.1355 152.168C82.2532 153.001 82.5027 153.649 82.884 154.113C83.2653 154.572 83.8401 154.801 84.6083 154.801ZM101.237 157.758H97.0061V128.802H101.237V157.758ZM101.237 126.137H97.0061V122.508H101.237V126.137ZM111.439 157.758H107.234V128.802H111.439V131.87C111.714 130.969 112.3 130.17 113.197 129.474C114.094 128.784 115.166 128.438 116.41 128.438C117.958 128.438 119.164 128.952 120.027 129.98C120.891 131.008 121.322 132.571 121.322 134.669V157.758H117.108V134.693C117.108 133.66 116.862 132.911 116.368 132.447C115.875 131.983 115.247 131.751 114.484 131.751C113.923 131.751 113.41 131.867 112.945 132.099C112.48 132.331 112.112 132.692 111.843 133.183C111.574 133.673 111.439 134.303 111.439 135.073V157.758ZM135.444 157.932H132.551C131.239 157.932 130.246 157.785 129.574 157.49C128.901 157.194 128.449 156.717 128.219 156.058C127.984 155.405 127.866 154.538 127.866 153.457V131.965H125.057V129.031H127.866V123.781H132.08V129.031H135.402V131.965H132.08V153.109C132.08 153.594 132.147 153.958 132.282 154.2C132.422 154.437 132.73 154.593 133.207 154.667C133.684 154.746 134.43 154.785 135.444 154.785V157.932ZM143.696 157.758H139.465V128.802H143.696V157.758ZM143.696 126.137H139.465V122.508H143.696V126.137ZM153.898 157.758H149.693V128.802H153.898V131.87C154.173 130.969 154.759 130.17 155.656 129.474C156.553 128.784 157.624 128.438 158.869 128.438C160.417 128.438 161.622 128.952 162.486 129.98C163.349 131.008 163.781 132.571 163.781 134.669V157.758H159.567V134.693C159.567 133.66 159.321 132.911 158.827 132.447C158.339 131.983 157.711 131.751 156.943 131.751C156.382 131.751 155.869 131.867 155.404 132.099C154.938 132.331 154.571 132.692 154.302 133.183C154.033 133.673 153.898 134.303 153.898 135.073V157.758ZM175.792 162.179C174.379 162.215 173.109 162.068 171.982 161.736C170.849 161.398 169.879 160.929 169.072 160.328L170.594 157.624C171.2 158.009 171.912 158.349 172.73 158.644C173.549 158.939 174.5 159.076 175.582 159.055C176.541 159.029 177.284 158.689 177.811 158.035C178.338 157.387 178.601 156.517 178.601 155.426V152.658C178.203 153.612 177.657 154.25 176.961 154.572C176.26 154.893 175.467 155.054 174.581 155.054C173.14 155.054 172.027 154.661 171.242 153.876C170.457 153.09 169.91 152.018 169.602 150.658C169.293 149.292 169.139 147.748 169.139 146.024V137.721C169.139 135.955 169.318 134.371 169.677 132.969C170.042 131.567 170.65 130.457 171.502 129.64C172.349 128.823 173.499 128.428 174.951 128.454C175.826 128.465 176.58 128.67 177.214 129.071C177.853 129.472 178.315 130.088 178.601 130.921V128.802H182.815V155.054C182.815 155.876 182.709 156.701 182.496 157.529C182.283 158.351 181.918 159.108 181.402 159.798C180.892 160.484 180.183 161.043 179.274 161.475C178.36 161.907 177.2 162.142 175.792 162.179ZM176.204 151.907C176.748 151.907 177.199 151.754 177.558 151.448C177.912 151.137 178.175 150.56 178.349 149.717C178.517 148.873 178.601 147.661 178.601 146.079V137.144C178.601 135.378 178.433 134.039 178.097 133.127C177.766 132.21 177.065 131.751 175.994 131.751C175.215 131.751 174.637 131.981 174.261 132.439C173.886 132.898 173.642 133.525 173.529 134.321C173.423 135.117 173.37 136.045 173.37 137.105V146.119C173.37 148.038 173.555 149.482 173.925 150.452C174.295 151.422 175.055 151.907 176.204 151.907ZM203.052 157.758H198.805V123.781H206.072C207.513 123.781 208.682 124.008 209.579 124.461C210.476 124.909 211.163 125.557 211.64 126.406C212.116 127.255 212.442 128.278 212.615 129.474C212.784 130.671 212.868 132.018 212.868 133.515V134.037C212.868 136.314 212.68 138.225 212.304 139.769C211.929 141.314 211.253 142.474 210.277 143.249C209.296 144.029 207.894 144.419 206.072 144.419H203.052V157.758ZM203.052 126.952V141.098H205.643C206.478 141.098 207.109 140.876 207.535 140.434C207.956 139.991 208.245 139.253 208.402 138.22C208.564 137.192 208.645 135.797 208.645 134.037V133.38C208.645 131.187 208.466 129.566 208.107 128.517C207.754 127.474 206.966 126.952 205.744 126.952H203.052ZM223.625 158.106C222.179 158.106 221.004 157.872 220.101 157.403C219.193 156.933 218.498 156.264 218.015 155.394C217.527 154.524 217.194 153.481 217.014 152.263C216.841 151.05 216.754 149.69 216.754 148.183V137.935C216.754 136.116 216.939 134.493 217.309 133.064C217.673 131.635 218.352 130.51 219.344 129.688C220.337 128.865 221.764 128.454 223.625 128.454C225.027 128.454 226.171 128.689 227.057 129.158C227.949 129.627 228.641 130.291 229.135 131.151C229.628 132.005 229.967 133.006 230.152 134.155C230.337 135.31 230.43 136.57 230.43 137.935V148.183C230.43 149.664 230.346 151.008 230.178 152.215C230.015 153.428 229.698 154.474 229.227 155.355C228.756 156.235 228.072 156.915 227.175 157.395C226.278 157.869 225.095 158.106 223.625 158.106ZM223.625 154.801C224.366 154.801 224.918 154.572 225.282 154.113C225.647 153.649 225.891 153.001 226.014 152.168C226.138 151.34 226.199 150.378 226.199 149.282V137.144C226.199 136.058 226.138 135.115 226.014 134.313C225.891 133.507 225.644 132.88 225.274 132.431C224.904 131.978 224.354 131.751 223.625 131.751C222.863 131.751 222.288 131.978 221.901 132.431C221.52 132.88 221.27 133.507 221.153 134.313C221.04 135.115 220.984 136.058 220.984 137.144V149.282C220.984 150.378 221.04 151.34 221.153 152.168C221.27 153.001 221.52 153.649 221.901 154.113C222.288 154.572 222.863 154.801 223.625 154.801ZM240.237 157.758H236.032V123.417H240.237V142.569L246.302 128.802H250.549L244.056 143.106L250.894 157.758H246.562L240.237 143.668V157.758ZM260.693 158.106C259.212 158.106 258.024 157.864 257.127 157.379C256.229 156.899 255.548 156.214 255.083 155.323C254.617 154.437 254.306 153.373 254.149 152.128C253.992 150.89 253.914 149.516 253.914 148.009V137.777C253.914 136.411 254.017 135.159 254.225 134.021C254.427 132.882 254.783 131.899 255.293 131.071C255.798 130.239 256.501 129.595 257.404 129.142C258.307 128.683 259.456 128.454 260.853 128.454C262.266 128.454 263.404 128.686 264.267 129.15C265.125 129.614 265.779 130.268 266.227 131.111C266.67 131.954 266.967 132.956 267.119 134.116C267.27 135.281 267.346 136.559 267.346 137.951V143.415H258.144V149.187C258.144 151.016 258.279 152.41 258.548 153.37C258.812 154.324 259.54 154.801 260.735 154.801C261.514 154.801 262.072 154.574 262.409 154.121C262.739 153.662 262.944 153.019 263.023 152.192C263.096 151.359 263.132 150.376 263.132 149.242V146.91H267.262V148.143C267.262 149.651 267.197 151.016 267.068 152.239C266.939 153.462 266.662 154.511 266.236 155.386C265.809 156.261 265.156 156.933 264.276 157.403C263.39 157.872 262.196 158.106 260.693 158.106ZM258.127 137.176V140.734H263.132V137.041C263.132 135.887 263.093 134.912 263.014 134.116C262.93 133.325 262.731 132.727 262.417 132.321C262.103 131.92 261.582 131.72 260.853 131.72C260.045 131.72 259.448 131.949 259.061 132.408C258.669 132.872 258.413 133.512 258.296 134.329C258.184 135.146 258.127 136.095 258.127 137.176ZM276.707 157.758H272.477V128.802H276.707V132.028C277.061 130.905 277.68 130.03 278.566 129.403C279.447 128.77 280.571 128.454 281.939 128.454C281.967 128.454 281.984 128.625 281.989 128.968C282.001 129.305 282.006 129.693 282.006 130.13C282.006 130.568 282.006 130.958 282.006 131.301C282.006 131.643 282.006 131.815 282.006 131.815C281.345 131.815 280.686 131.889 280.03 132.036C279.374 132.184 278.76 132.434 278.188 132.787C277.61 133.141 277.117 133.62 276.707 134.226V157.758Z" fill="#4D0990"/>
</g>
</g>
</g>
</g>
<g clip-path="url(#clip7_214_2)">
<g clip-path="url(#clip8_214_2)">
<path d="M170.894 77.6519L170.832 77.6508C170.152 77.6289 169.681 77.2434 169.431 76.5021C168.944 75.4986 167.087 72.7367 163.265 68.9687C157.885 63.6653 157.017 61.5894 157.017 58.6707C157.017 55.8551 159.12 51.3879 164.764 51.3879C167.744 51.3879 169.709 53.0356 170.897 54.5874C172.086 53.0356 174.05 51.3874 177.03 51.3874C182.674 51.3874 184.777 55.8545 184.777 58.6707C184.777 61.5894 183.91 63.6653 178.53 68.9687C174.704 72.7395 172.849 75.4997 172.364 76.5015C172.11 77.2494 171.633 77.6354 170.944 77.6513L170.894 77.6519ZM164.764 54.1295C160.942 54.1295 159.933 57.0998 159.933 58.6707C159.933 60.3025 159.933 61.7122 165.375 67.0764C168.184 69.846 169.896 71.9965 170.897 73.4326C171.897 71.9971 173.609 69.8471 176.418 67.0764C181.861 61.7122 181.861 60.3025 181.861 58.6707C181.861 57.0998 180.851 54.129 177.029 54.129C174.173 54.129 172.736 56.779 172.25 57.9184C172.142 58.1727 171.955 58.3908 171.714 58.5444C171.473 58.698 171.188 58.7801 170.897 58.7801C170.606 58.7801 170.321 58.698 170.08 58.5444C169.838 58.3908 169.652 58.1727 169.543 57.9184C169.058 56.779 167.62 54.1295 164.764 54.1295Z" fill="#4D0990"/>
<path d="M190.731 91.9356H151.063C150.676 91.9356 150.305 91.7912 150.032 91.5341C149.758 91.277 149.604 90.9284 149.604 90.5648V38.4744C149.604 38.1109 149.758 37.7622 150.032 37.5051C150.305 37.248 150.676 37.1036 151.063 37.1036H190.731C191.117 37.1036 191.488 37.248 191.762 37.5051C192.035 37.7622 192.189 38.1109 192.189 38.4744V90.5648C192.189 90.9284 192.035 91.277 191.762 91.5341C191.488 91.7912 191.117 91.9356 190.731 91.9356ZM152.521 89.194H189.273V39.8452H152.521V89.194Z" fill="#4D0990"/>
<path d="M156.826 45.6026C157.631 45.6026 158.284 44.9888 158.284 44.2318C158.284 43.4747 157.631 42.861 156.826 42.861C156.02 42.861 155.368 43.4747 155.368 44.2318C155.368 44.9888 156.02 45.6026 156.826 45.6026Z" fill="#4D0990"/>
<path d="M184.968 86.1782C185.773 86.1782 186.426 85.5645 186.426 84.8074C186.426 84.0504 185.773 83.4366 184.968 83.4366C184.162 83.4366 183.51 84.0504 183.51 84.8074C183.51 85.5645 184.162 86.1782 184.968 86.1782Z" fill="#4D0990"/>
</g>
</g>
</g>
</g>
</g>
<defs>
<clipPath id="clip0_214_2">
<rect width="223.793" height="125.287" fill="white" transform="translate(59 37)"/>
</clipPath>
<clipPath id="clip1_214_2">
<rect width="223.35" height="125.08" fill="white" transform="translate(59.2218 37.1036)"/>
</clipPath>
<clipPath id="clip2_214_2">
<rect width="223.35" height="125.08" fill="white" transform="translate(59.2218 37.1036)"/>
</clipPath>
<clipPath id="clip3_214_2">
<rect width="222.238" height="39.6758" fill="white" transform="translate(59.7774 122.508)"/>
</clipPath>
<clipPath id="clip4_214_2">
<rect width="222.238" height="39.6758" fill="white" transform="translate(59.7774 122.508)"/>
</clipPath>
<clipPath id="clip5_214_2">
<rect width="222.238" height="39.6758" fill="white" transform="translate(59.7774 122.508)"/>
</clipPath>
<clipPath id="clip6_214_2">
<rect width="222.238" height="39.6758" fill="white" transform="translate(59.7774 122.508)"/>
</clipPath>
<clipPath id="clip7_214_2">
<rect width="42.5845" height="54.832" fill="white" transform="translate(149.604 37.1036)"/>
</clipPath>
<clipPath id="clip8_214_2">
<rect width="42.5845" height="54.832" fill="white" transform="translate(149.604 37.1036)"/>
</clipPath>
</defs>
</svg>
